<svg xmlns="http://www.w3.org/2000/svg" width="25" height="20" viewBox="0 0 25 20">
    <path fill="#969696" d="M16.681.862c.296 0 .528.25.528.548v3.63l6.383.001c.195-.003.374.106.468.28.09.166.067.44.063.547v14.647c0 .299-.231.548-.527.548H5.463c-.195.003-.373-.105-.467-.279-.09-.167-.09-.371 0-.538.094-.174.272-.283.463-.28h17.61V6.213l.002-.075H.89v14.374c.003.193-.093.375-.254.476-.168.106-.378.106-.546 0-.162-.101-.257-.283-.254-.473V5.594c-.005-.281.192-.506.49-.55l.037-.003H6.75V1.413c-.005-.262.17-.495.45-.55L7.233.86h9.448zm-.527 1.097h-8.35V5.04h8.35V1.96z"/>
</svg>
